<svg id="Layer_2" data-name="Layer 2" xmlns="http://www.w3.org/2000/svg" viewBox="0 0 407.49 106.39"><defs><style>.cls-1{fill:#4d365b;}</style></defs><path class="cls-1" d="M138.71,239.84q0,5.32-4.8,5.33h-25.6c-.72,0-1.07.51-1.07,1.51q.18,8.19,4.76,12.94a15.46,15.46,0,0,0,11.64,4.76q7.08,0,10.45-2.76a1.45,1.45,0,0,1,2.13.09c.66.65.57,1.39-.26,2.22q-5,5-13.69,5-11,0-17.12-6.27T99,245.17a23,23,0,0,1,6.14-15.87,19.06,19.06,0,0,1,14.62-6.8q8.49,0,13.74,4.93A16.31,16.31,0,0,1,138.71,239.84Zm-8-1.16a14.15,14.15,0,0,0-2.89-9,9.68,9.68,0,0,0-8.09-3.69,11.21,11.21,0,0,0-8.84,4.26,14.61,14.61,0,0,0-3.65,9.79c0,.94.38,1.42,1.16,1.42H128A2.44,2.44,0,0,0,130.71,238.68Z" transform="translate(-46.26 -196.8)"/><path class="cls-1" d="M150,238.68h17.88c.71,0,1.06.33,1.06,1v4.18c0,.65-.35,1-1.06,1H150c-.71,0-1.06-.33-1.06-1v-4.18C148.94,239,149.29,238.68,150,238.68Z" transform="translate(-46.26 -196.8)"/><path class="cls-1" d="M221.49,251.84q0,8.36-6.27,12.71a25.94,25.94,0,0,1-15.2,4.36q-8.94,0-14.67-2.13t-5.74-4.72v-10.4c0-1.24.48-1.86,1.42-1.86.77,0,1.31.56,1.61,1.68q2.31,6.86,6,10.19T199,265q6.67,0,10.81-3a9.81,9.81,0,0,0,4.13-8.36q0-5.87-6.58-9.87a71.9,71.9,0,0,0-6.49-3.47q-3.56-1.68-7.11-3.51a47.44,47.44,0,0,1-6.49-4q-6.58-4.8-6.58-12.13A13.91,13.91,0,0,1,186.32,209a21.33,21.33,0,0,1,13.3-4.31,38.59,38.59,0,0,1,13,1.91q5.33,1.91,5.33,4.22v9c0,1.19-.43,1.78-1.29,1.78s-1.49-.59-1.91-1.78q-1.86-5.69-4.89-8.44t-9-2.76q-6,0-9.47,2.84a8.82,8.82,0,0,0-3.47,7.07,9.42,9.42,0,0,0,3.47,7.29,35.77,35.77,0,0,0,8.4,5.43q4.94,2.36,9.87,4.89a27.85,27.85,0,0,1,8.4,6.53A13.6,13.6,0,0,1,221.49,251.84Z" transform="translate(-46.26 -196.8)"/><path class="cls-1" d="M267.9,236.55c0,1-.42,1.51-1.24,1.51s-1.19-.5-1.43-1.51a16.26,16.26,0,0,0-4.35-7.74,10.76,10.76,0,0,0-7.65-2.84,13.55,13.55,0,0,0-10.85,4.93q-4.17,4.93-4.18,13.12,0,10.22,5,15.29a15.91,15.91,0,0,0,11.65,5.07q6.62,0,10.8-2.67a2,2,0,0,1,1.15-.45,1.37,1.37,0,0,1,.94.36,1.32,1.32,0,0,1,.4,1,2,2,0,0,1-.71,1.38q-4.89,4.89-14.54,4.89a22.32,22.32,0,0,1-16.09-6.18q-6.45-6.18-6.45-17.82a21.86,21.86,0,0,1,6.45-15.79,21.27,21.27,0,0,1,15.87-6.62,26,26,0,0,1,10.84,2q4.36,2,4.36,4.31Z" transform="translate(-46.26 -196.8)"/><path class="cls-1" d="M299.69,222.5q10.17,0,16.27,6.4t6.09,16.85q0,10.45-6.05,16.8t-16.4,6.36q-10.37,0-16.45-6.4t-6.09-16.72q0-10.31,6.22-16.8T299.69,222.5Zm11.69,10.85a12.46,12.46,0,0,0-4.49-5.38,12.66,12.66,0,0,0-7.25-2q-7.38,0-11,4.89T285,243.66a34.89,34.89,0,0,0,2.85,14.49,12.26,12.26,0,0,0,11.56,7.29q7.55,0,11.15-4.89t3.6-13A34.52,34.52,0,0,0,311.38,233.35Z" transform="translate(-46.26 -196.8)"/><path class="cls-1" d="M353.56,222.5q10.19,0,16.28,6.4t6.09,16.85q0,10.45-6.05,16.8t-16.4,6.36q-10.37,0-16.45-6.4t-6.09-16.72q0-10.31,6.22-16.8T353.56,222.5Zm11.7,10.85a12.46,12.46,0,0,0-4.49-5.38,12.66,12.66,0,0,0-7.25-2q-7.38,0-11,4.89t-3.65,12.8a34.89,34.89,0,0,0,2.85,14.49,12.23,12.23,0,0,0,11.55,7.29q7.56,0,11.16-4.89t3.6-13A34.52,34.52,0,0,0,365.26,233.35Z" transform="translate(-46.26 -196.8)"/><path class="cls-1" d="M395.31,196.8c.95,0,1.42.69,1.42,2v63.21c0,2.14,1.19,3.35,3.56,3.65l1.51.18a1.07,1.07,0,0,1,1.06,1.24c0,.77-.44,1.16-1.33,1.16l-8.45-.36-9.6.36c-.89,0-1.33-.39-1.33-1.16a1.07,1.07,0,0,1,1.07-1.24l2.49-.18a5.44,5.44,0,0,0,2.93-1.11,3.09,3.09,0,0,0,1.16-2.54V203.83a3.2,3.2,0,0,0-.76-2.45,3.7,3.7,0,0,0-2.45-.66h-3a1,1,0,0,1-1.15-1.16,1.21,1.21,0,0,1,1.15-1.33l11.56-1.43Z" transform="translate(-46.26 -196.8)"/><path class="cls-1" d="M50.66,294a7.77,7.77,0,0,1-3.06-1.48,2.86,2.86,0,0,1-1-2.18,3,3,0,0,1,1.17-2.41,4.6,4.6,0,0,1,3-1,5.09,5.09,0,0,1,2.28.49,3.79,3.79,0,0,1,1.54,1.36,3.45,3.45,0,0,1,.55,1.9H53.58a2.28,2.28,0,0,0-.71-1.77,3.5,3.5,0,0,0-3.9-.11,1.75,1.75,0,0,0-.67,1.47,1.57,1.57,0,0,0,.64,1.28,6.17,6.17,0,0,0,2.18,1,10,10,0,0,1,2.41,1,3.66,3.66,0,0,1,1.3,1.22,3.1,3.1,0,0,1,.42,1.64,2.88,2.88,0,0,1-1.18,2.41,5,5,0,0,1-3.13.9,5.76,5.76,0,0,1-2.38-.49,4,4,0,0,1-1.7-1.33,3.27,3.27,0,0,1-.6-1.93H47.9a2.1,2.1,0,0,0,.83,1.77,3.5,3.5,0,0,0,2.21.65,3.22,3.22,0,0,0,2-.53A1.85,1.85,0,0,0,53,295,7.43,7.43,0,0,0,50.66,294Z" transform="translate(-46.26 -196.8)"/><path class="cls-1" d="M58.57,290.29l0,1a3.42,3.42,0,0,1,2.73-1.19A2.63,2.63,0,0,1,64,291.6a3.42,3.42,0,0,1,2.93-1.48c2,0,3,1.07,3.07,3.2v6.16H68.4v-6.06a2.13,2.13,0,0,0-.45-1.48,2,2,0,0,0-1.51-.49A2.1,2.1,0,0,0,65,292a2.14,2.14,0,0,0-.67,1.4v6.1H62.73v-6a1.75,1.75,0,0,0-2-2,2.11,2.11,0,0,0-2.12,1.32v6.71H57.08v-9.19Z" transform="translate(-46.26 -196.8)"/><path class="cls-1" d="M78,299.48a3.4,3.4,0,0,1-.22-1,3.5,3.5,0,0,1-2.62,1.14,3.2,3.2,0,0,1-2.23-.77,2.48,2.48,0,0,1-.87-1.95,2.6,2.6,0,0,1,1.09-2.23,5.14,5.14,0,0,1,3.07-.79h1.53v-.72a1.78,1.78,0,0,0-.49-1.32,2,2,0,0,0-1.45-.48,2.31,2.31,0,0,0-1.41.42,1.25,1.25,0,0,0-.57,1H72.27a2.15,2.15,0,0,1,.49-1.33,3.26,3.26,0,0,1,1.32-1,4.45,4.45,0,0,1,1.84-.37,3.63,3.63,0,0,1,2.49.79,2.86,2.86,0,0,1,.93,2.19v4.23a5.09,5.09,0,0,0,.33,2v.13Zm-2.61-1.2a2.71,2.71,0,0,0,1.4-.38,2.29,2.29,0,0,0,1-1V295H76.54c-1.93,0-2.89.57-2.89,1.69a1.46,1.46,0,0,0,.49,1.16A1.9,1.9,0,0,0,75.41,298.28Z" transform="translate(-46.26 -196.8)"/><path class="cls-1" d="M86.25,291.7a4.54,4.54,0,0,0-.77-.06,2.08,2.08,0,0,0-2.1,1.32v6.52H81.81v-9.19h1.53l0,1.06a2.46,2.46,0,0,1,2.2-1.23,1.58,1.58,0,0,1,.69.12Z" transform="translate(-46.26 -196.8)"/><path class="cls-1" d="M90.26,288.06v2.23H92v1.21H90.26v5.71a1.23,1.23,0,0,0,.23.83.94.94,0,0,0,.78.28,4.34,4.34,0,0,0,.74-.1v1.26a4.24,4.24,0,0,1-1.2.17,2,2,0,0,1-1.59-.63,2.73,2.73,0,0,1-.54-1.81V291.5H87v-1.21h1.67v-2.23Z" transform="translate(-46.26 -196.8)"/><path class="cls-1" d="M100,298.15h5.86v1.33h-7.5V287.11H100Z" transform="translate(-46.26 -196.8)"/><path class="cls-1" d="M111.29,299.65a4,4,0,0,1-3-1.22,4.58,4.58,0,0,1-1.17-3.29v-.29a5.5,5.5,0,0,1,.52-2.44,4.07,4.07,0,0,1,1.46-1.68,3.66,3.66,0,0,1,2-.61,3.46,3.46,0,0,1,2.79,1.18,5.12,5.12,0,0,1,1,3.38v.66h-6.23a3.22,3.22,0,0,0,.8,2.19,2.48,2.48,0,0,0,1.93.84,2.7,2.7,0,0,0,1.41-.34,3.6,3.6,0,0,0,1-.9l1,.75A3.86,3.86,0,0,1,111.29,299.65Zm-.19-8.24a2.1,2.1,0,0,0-1.6.69,3.36,3.36,0,0,0-.8,1.94h4.61v-.11a3,3,0,0,0-.65-1.86A2,2,0,0,0,111.1,291.41Z" transform="translate(-46.26 -196.8)"/><path class="cls-1" d="M122.38,299.48a3,3,0,0,1-.23-1,3.5,3.5,0,0,1-2.61,1.14,3.2,3.2,0,0,1-2.23-.77,2.48,2.48,0,0,1-.87-1.95,2.6,2.6,0,0,1,1.09-2.23,5.14,5.14,0,0,1,3.07-.79h1.53v-.72a1.82,1.82,0,0,0-.49-1.32,2,2,0,0,0-1.46-.48,2.31,2.31,0,0,0-1.41.42,1.25,1.25,0,0,0-.57,1h-1.58a2.21,2.21,0,0,1,.49-1.33,3.36,3.36,0,0,1,1.33-1,4.42,4.42,0,0,1,1.84-.37,3.63,3.63,0,0,1,2.49.79,2.86,2.86,0,0,1,.93,2.19v4.23a5.3,5.3,0,0,0,.32,2v.13Zm-2.61-1.2a2.71,2.71,0,0,0,1.4-.38,2.29,2.29,0,0,0,1-1V295H120.9c-1.93,0-2.89.57-2.89,1.69a1.43,1.43,0,0,0,.49,1.16A1.88,1.88,0,0,0,119.77,298.28Z" transform="translate(-46.26 -196.8)"/><path class="cls-1" d="M130.61,291.7a4.72,4.72,0,0,0-.77-.06,2.07,2.07,0,0,0-2.1,1.32v6.52h-1.58v-9.19h1.53l0,1.06a2.46,2.46,0,0,1,2.19-1.23,1.6,1.6,0,0,1,.7.12Z" transform="translate(-46.26 -196.8)"/><path class="cls-1" d="M133.54,290.29l.05,1.15a3.35,3.35,0,0,1,2.75-1.32q2.92,0,2.94,3.29v6.07h-1.57V293.4a2.09,2.09,0,0,0-.45-1.47,1.82,1.82,0,0,0-1.39-.48,2.26,2.26,0,0,0-1.34.41,2.68,2.68,0,0,0-.9,1.07v6.55h-1.58v-9.19Z" transform="translate(-46.26 -196.8)"/><path class="cls-1" d="M141.66,287.85a1,1,0,0,1,.24-.65.88.88,0,0,1,.69-.26.91.91,0,0,1,.7.26,1,1,0,0,1,.24.65.85.85,0,0,1-.94.89.87.87,0,0,1-.69-.25A.91.91,0,0,1,141.66,287.85Zm1.7,11.63h-1.57v-9.19h1.57Z" transform="translate(-46.26 -196.8)"/><path class="cls-1" d="M147.37,290.29l0,1.15a3.35,3.35,0,0,1,2.75-1.32q2.91,0,2.94,3.29v6.07h-1.57V293.4a2.14,2.14,0,0,0-.46-1.47,1.8,1.8,0,0,0-1.39-.48,2.29,2.29,0,0,0-1.34.41,2.85,2.85,0,0,0-.9,1.07v6.55h-1.57v-9.19Z" transform="translate(-46.26 -196.8)"/><path class="cls-1" d="M155.11,294.81a5.43,5.43,0,0,1,1-3.42,3.43,3.43,0,0,1,5.26-.08l.08-1h1.43v9a3.74,3.74,0,0,1-1.05,2.81,3.91,3.91,0,0,1-2.85,1,4.74,4.74,0,0,1-1.94-.42,3.31,3.31,0,0,1-1.46-1.17l.82-.94a3.08,3.08,0,0,0,2.47,1.25,2.41,2.41,0,0,0,1.79-.65,2.45,2.45,0,0,0,.64-1.82v-.79a3.21,3.21,0,0,1-2.57,1.09,3.11,3.11,0,0,1-2.61-1.3A5.62,5.62,0,0,1,155.11,294.81Zm1.58.18a4.16,4.16,0,0,0,.63,2.44,2.09,2.09,0,0,0,1.79.89,2.29,2.29,0,0,0,2.18-1.35v-4.2a2.32,2.32,0,0,0-2.16-1.32,2.09,2.09,0,0,0-1.8.9A4.47,4.47,0,0,0,156.69,295Z" transform="translate(-46.26 -196.8)"/><path class="cls-1" d="M165.28,298.66a1,1,0,0,1,.24-.68.92.92,0,0,1,.73-.27.9.9,0,0,1,1,1,.88.88,0,0,1-.25.65,1,1,0,0,1-.73.27.88.88,0,0,1-1-.92Z" transform="translate(-46.26 -196.8)"/><path class="cls-1" d="M173.72,294a7.77,7.77,0,0,1-3.06-1.48,2.83,2.83,0,0,1-.95-2.18,3,3,0,0,1,1.16-2.41,4.63,4.63,0,0,1,3-1,5,5,0,0,1,2.27.49,3.75,3.75,0,0,1,1.55,1.36,3.45,3.45,0,0,1,.55,1.9h-1.64a2.28,2.28,0,0,0-.71-1.77,3.5,3.5,0,0,0-3.9-.11,1.76,1.76,0,0,0-.68,1.47,1.58,1.58,0,0,0,.65,1.28,6.17,6.17,0,0,0,2.18,1,10,10,0,0,1,2.41,1,3.63,3.63,0,0,1,1.29,1.22,3.1,3.1,0,0,1,.42,1.64,2.89,2.89,0,0,1-1.17,2.41,5,5,0,0,1-3.13.9,5.73,5.73,0,0,1-2.38-.49,4,4,0,0,1-1.71-1.33,3.27,3.27,0,0,1-.6-1.93H171a2.13,2.13,0,0,0,.83,1.77,3.53,3.53,0,0,0,2.22.65,3.22,3.22,0,0,0,2-.53,1.72,1.72,0,0,0,.68-1.43A1.69,1.69,0,0,0,176,295,7.43,7.43,0,0,0,173.72,294Z" transform="translate(-46.26 -196.8)"/><path class="cls-1" d="M185.82,299.48a3.4,3.4,0,0,1-.22-1,3.5,3.5,0,0,1-2.61,1.14,3.2,3.2,0,0,1-2.23-.77,2.48,2.48,0,0,1-.87-1.95A2.6,2.6,0,0,1,181,294.7a5.12,5.12,0,0,1,3.07-.79h1.53v-.72a1.82,1.82,0,0,0-.49-1.32,2,2,0,0,0-1.46-.48,2.31,2.31,0,0,0-1.41.42,1.25,1.25,0,0,0-.57,1h-1.58a2.15,2.15,0,0,1,.49-1.33,3.36,3.36,0,0,1,1.33-1,4.42,4.42,0,0,1,1.84-.37,3.67,3.67,0,0,1,2.49.79,2.86,2.86,0,0,1,.93,2.19v4.23a5.3,5.3,0,0,0,.32,2v.13Zm-2.6-1.2a2.71,2.71,0,0,0,1.4-.38,2.29,2.29,0,0,0,1-1V295h-1.23c-1.93,0-2.89.57-2.89,1.69a1.43,1.43,0,0,0,.49,1.16A1.88,1.88,0,0,0,183.22,298.28Z" transform="translate(-46.26 -196.8)"/><path class="cls-1" d="M192.52,297.35l2.28-7.06h1.6l-3.29,9.19h-1.2l-3.33-9.19h1.6Z" transform="translate(-46.26 -196.8)"/><path class="cls-1" d="M200.92,297.18l2.15-6.89h1.68l-3.7,10.61c-.57,1.53-1.48,2.3-2.73,2.3l-.29,0-.59-.11v-1.27l.42,0a2.14,2.14,0,0,0,1.25-.32,2.33,2.33,0,0,0,.73-1.18l.35-.94-3.28-9.09h1.72Z" transform="translate(-46.26 -196.8)"/><path class="cls-1" d="M212.81,287.11l4.05,10.1,4-10.1H223v12.37h-1.63v-4.82l.15-5.2-4.06,10h-1.25l-4.06-10,.17,5.17v4.82H210.7V287.11Z" transform="translate(-46.26 -196.8)"/><path class="cls-1" d="M225.24,294.8a5.35,5.35,0,0,1,.53-2.43,3.9,3.9,0,0,1,1.47-1.66,4,4,0,0,1,2.17-.59,3.88,3.88,0,0,1,3,1.3,5,5,0,0,1,1.15,3.46V295a5.53,5.53,0,0,1-.51,2.41,3.89,3.89,0,0,1-1.47,1.66,4.14,4.14,0,0,1-2.2.59,3.88,3.88,0,0,1-3-1.3,5,5,0,0,1-1.15-3.44Zm1.58.19a3.86,3.86,0,0,0,.71,2.45,2.4,2.4,0,0,0,3.8,0,4.29,4.29,0,0,0,.7-2.63,3.92,3.92,0,0,0-.72-2.45,2.38,2.38,0,0,0-3.78,0A4.22,4.22,0,0,0,226.82,295Z" transform="translate(-46.26 -196.8)"/><path class="cls-1" d="M237.06,290.29l.05,1.15a3.37,3.37,0,0,1,2.76-1.32q2.91,0,2.94,3.29v6.07h-1.57V293.4a2.14,2.14,0,0,0-.46-1.47,1.82,1.82,0,0,0-1.39-.48,2.26,2.26,0,0,0-1.34.41,2.68,2.68,0,0,0-.9,1.07v6.55h-1.57v-9.19Z" transform="translate(-46.26 -196.8)"/><path class="cls-1" d="M245.19,287.85a.94.94,0,0,1,.23-.65,1.06,1.06,0,0,1,1.39,0,1,1,0,0,1,.24.65.93.93,0,1,1-1.86,0Zm1.7,11.63h-1.58v-9.19h1.58Z" transform="translate(-46.26 -196.8)"/><path class="cls-1" d="M251.53,288.06v2.23h1.72v1.21h-1.72v5.71a1.28,1.28,0,0,0,.23.83,1,1,0,0,0,.79.28,4.47,4.47,0,0,0,.74-.1v1.26a4.24,4.24,0,0,1-1.2.17,2,2,0,0,1-1.59-.63,2.73,2.73,0,0,1-.54-1.81V291.5h-1.67v-1.21H250v-2.23Z" transform="translate(-46.26 -196.8)"/><path class="cls-1" d="M254.5,294.8a5.49,5.49,0,0,1,.53-2.43,3.93,3.93,0,0,1,3.64-2.25,3.87,3.87,0,0,1,3,1.3,5,5,0,0,1,1.16,3.46V295a5.4,5.4,0,0,1-.52,2.41,3.93,3.93,0,0,1-1.46,1.66,4.16,4.16,0,0,1-2.2.59,3.85,3.85,0,0,1-3-1.3,5,5,0,0,1-1.16-3.44Zm1.58.19a3.92,3.92,0,0,0,.71,2.45,2.4,2.4,0,0,0,3.8,0,4.28,4.28,0,0,0,.71-2.63,3.92,3.92,0,0,0-.72-2.45,2.28,2.28,0,0,0-1.91-.94,2.26,2.26,0,0,0-1.88.93A4.29,4.29,0,0,0,256.08,295Z" transform="translate(-46.26 -196.8)"/><path class="cls-1" d="M269.28,291.7a4.54,4.54,0,0,0-.77-.06,2.08,2.08,0,0,0-2.1,1.32v6.52h-1.57v-9.19h1.53l0,1.06a2.46,2.46,0,0,1,2.2-1.23,1.55,1.55,0,0,1,.69.12Z" transform="translate(-46.26 -196.8)"/><path class="cls-1" d="M270.74,287.85a1,1,0,0,1,.23-.65,1.06,1.06,0,0,1,1.39,0,1,1,0,0,1,.24.65,1,1,0,0,1-1.63.64A1,1,0,0,1,270.74,287.85Zm1.7,11.63h-1.58v-9.19h1.58Z" transform="translate(-46.26 -196.8)"/><path class="cls-1" d="M276.44,290.29l.05,1.15a3.35,3.35,0,0,1,2.75-1.32q2.92,0,2.94,3.29v6.07h-1.57V293.4a2.13,2.13,0,0,0-.45-1.47,1.82,1.82,0,0,0-1.39-.48,2.26,2.26,0,0,0-1.34.41,2.79,2.79,0,0,0-.91,1.07v6.55H275v-9.19Z" transform="translate(-46.26 -196.8)"/><path class="cls-1" d="M284.18,294.81a5.43,5.43,0,0,1,1-3.42,3.2,3.2,0,0,1,2.64-1.27,3.15,3.15,0,0,1,2.62,1.19l.08-1H292v9a3.75,3.75,0,0,1-1.06,2.81,3.89,3.89,0,0,1-2.84,1,4.75,4.75,0,0,1-1.95-.42,3.28,3.28,0,0,1-1.45-1.17l.81-.94a3.1,3.1,0,0,0,2.48,1.25,2.39,2.39,0,0,0,1.78-.65,2.45,2.45,0,0,0,.65-1.82v-.79a3.23,3.23,0,0,1-2.58,1.09,3.13,3.13,0,0,1-2.61-1.3A5.62,5.62,0,0,1,284.18,294.81Zm1.58.18a4.09,4.09,0,0,0,.64,2.44,2.07,2.07,0,0,0,1.78.89,2.32,2.32,0,0,0,2.19-1.35v-4.2a2.34,2.34,0,0,0-2.17-1.32,2.07,2.07,0,0,0-1.79.9A4.47,4.47,0,0,0,285.76,295Z" transform="translate(-46.26 -196.8)"/><path class="cls-1" d="M294.35,298.66a1,1,0,0,1,.24-.68,1,1,0,0,1,.73-.27,1,1,0,0,1,.74.27,1,1,0,0,1,.25.68.92.92,0,0,1-.25.65,1,1,0,0,1-.74.27,1,1,0,0,1-.73-.27A.92.92,0,0,1,294.35,298.66Z" transform="translate(-46.26 -196.8)"/><path class="cls-1" d="M307.1,294a7.77,7.77,0,0,1-3.06-1.48,2.86,2.86,0,0,1-1-2.18,3,3,0,0,1,1.17-2.41,4.6,4.6,0,0,1,3-1,5.09,5.09,0,0,1,2.28.49,3.79,3.79,0,0,1,1.54,1.36,3.45,3.45,0,0,1,.55,1.9H310a2.28,2.28,0,0,0-.71-1.77,3.5,3.5,0,0,0-3.9-.11,1.76,1.76,0,0,0-.68,1.47,1.58,1.58,0,0,0,.65,1.28,6.17,6.17,0,0,0,2.18,1,10,10,0,0,1,2.41,1,3.63,3.63,0,0,1,1.29,1.22,3,3,0,0,1,.43,1.64,2.88,2.88,0,0,1-1.18,2.41,5,5,0,0,1-3.13.9,5.73,5.73,0,0,1-2.38-.49,3.91,3.91,0,0,1-1.7-1.33,3.27,3.27,0,0,1-.6-1.93h1.64a2.12,2.12,0,0,0,.82,1.77,3.53,3.53,0,0,0,2.22.65,3.22,3.22,0,0,0,2-.53,1.85,1.85,0,0,0,.05-2.84A7.43,7.43,0,0,0,307.1,294Z" transform="translate(-46.26 -196.8)"/><path class="cls-1" d="M317.34,299.65a4,4,0,0,1-3-1.22,4.58,4.58,0,0,1-1.17-3.29v-.29a5.5,5.5,0,0,1,.52-2.44,4.07,4.07,0,0,1,1.46-1.68,3.66,3.66,0,0,1,2-.61,3.46,3.46,0,0,1,2.79,1.18,5.12,5.12,0,0,1,1,3.38v.66H314.7a3.22,3.22,0,0,0,.8,2.19,2.48,2.48,0,0,0,1.93.84,2.7,2.7,0,0,0,1.41-.34,3.6,3.6,0,0,0,1-.9l1,.75A3.86,3.86,0,0,1,317.34,299.65Zm-.19-8.24a2.1,2.1,0,0,0-1.6.69,3.42,3.42,0,0,0-.8,1.94h4.61v-.11a3,3,0,0,0-.65-1.86A2,2,0,0,0,317.15,291.41Z" transform="translate(-46.26 -196.8)"/><path class="cls-1" d="M328.43,299.48a3.32,3.32,0,0,1-.23-1,3.5,3.5,0,0,1-2.61,1.14,3.2,3.2,0,0,1-2.23-.77,2.48,2.48,0,0,1-.87-1.95,2.6,2.6,0,0,1,1.09-2.23,5.14,5.14,0,0,1,3.07-.79h1.53v-.72a1.82,1.82,0,0,0-.49-1.32,2,2,0,0,0-1.46-.48,2.31,2.31,0,0,0-1.41.42,1.25,1.25,0,0,0-.57,1h-1.58a2.21,2.21,0,0,1,.49-1.33,3.36,3.36,0,0,1,1.33-1,4.45,4.45,0,0,1,1.84-.37,3.63,3.63,0,0,1,2.49.79,2.86,2.86,0,0,1,.93,2.19v4.23a5.3,5.3,0,0,0,.32,2v.13Zm-2.61-1.2a2.71,2.71,0,0,0,1.4-.38,2.29,2.29,0,0,0,1-1V295H327c-1.93,0-2.89.57-2.89,1.69a1.43,1.43,0,0,0,.49,1.16A1.88,1.88,0,0,0,325.82,298.28Z" transform="translate(-46.26 -196.8)"/><path class="cls-1" d="M333.69,290.29l.05,1a3.39,3.39,0,0,1,2.72-1.19,2.62,2.62,0,0,1,2.63,1.48,3.51,3.51,0,0,1,1.19-1.07,3.45,3.45,0,0,1,1.74-.41c2,0,3,1.07,3.08,3.2v6.16h-1.58v-6.06a2.08,2.08,0,0,0-.45-1.48,2,2,0,0,0-1.51-.49,2.05,2.05,0,0,0-2.12,1.93v6.1h-1.58v-6a1.76,1.76,0,0,0-2-2,2.1,2.1,0,0,0-2.11,1.32v6.71h-1.57v-9.19Z" transform="translate(-46.26 -196.8)"/><path class="cls-1" d="M349.18,299.48H347.6V286.43h1.58Z" transform="translate(-46.26 -196.8)"/><path class="cls-1" d="M355.51,299.65a4.07,4.07,0,0,1-3.05-1.22,4.58,4.58,0,0,1-1.17-3.29v-.29a5.64,5.64,0,0,1,.52-2.44,4,4,0,0,1,1.47-1.68,3.61,3.61,0,0,1,2-.61,3.44,3.44,0,0,1,2.79,1.18,5.12,5.12,0,0,1,1,3.38v.66h-6.23a3.27,3.27,0,0,0,.8,2.19,2.49,2.49,0,0,0,1.93.84A2.68,2.68,0,0,0,357,298a3.6,3.6,0,0,0,1-.9l1,.75A3.85,3.85,0,0,1,355.51,299.65Zm-.2-8.24a2.11,2.11,0,0,0-1.6.69,3.42,3.42,0,0,0-.8,1.94h4.61v-.11a3,3,0,0,0-.65-1.86A2,2,0,0,0,355.31,291.41Z" transform="translate(-46.26 -196.8)"/><path class="cls-1" d="M366.26,297a1.17,1.17,0,0,0-.48-1,4.68,4.68,0,0,0-1.67-.6,7.58,7.58,0,0,1-1.89-.62,2.58,2.58,0,0,1-1-.85,2,2,0,0,1-.34-1.17,2.38,2.38,0,0,1,1-1.91,3.74,3.74,0,0,1,2.44-.78,3.85,3.85,0,0,1,2.54.81,2.53,2.53,0,0,1,1,2.06h-1.58a1.4,1.4,0,0,0-.55-1.11,2,2,0,0,0-1.38-.47,2.2,2.2,0,0,0-1.34.37,1.2,1.2,0,0,0-.49,1,1,1,0,0,0,.45.86,5.65,5.65,0,0,0,1.63.55,8.87,8.87,0,0,1,1.91.63,2.71,2.71,0,0,1,1.08.88,2.12,2.12,0,0,1,.36,1.25,2.35,2.35,0,0,1-1,2,4.18,4.18,0,0,1-2.56.74,4.62,4.62,0,0,1-2-.39,3.13,3.13,0,0,1-1.33-1.09,2.63,2.63,0,0,1-.48-1.52h1.57a1.65,1.65,0,0,0,.63,1.26,2.47,2.47,0,0,0,1.56.46,2.52,2.52,0,0,0,1.43-.36A1.11,1.11,0,0,0,366.26,297Z" transform="translate(-46.26 -196.8)"/><path class="cls-1" d="M375.24,297a1.17,1.17,0,0,0-.48-1,4.75,4.75,0,0,0-1.68-.6,7.87,7.87,0,0,1-1.89-.62,2.65,2.65,0,0,1-1-.85,2,2,0,0,1-.33-1.17,2.4,2.4,0,0,1,.95-1.91,3.75,3.75,0,0,1,2.45-.78,3.82,3.82,0,0,1,2.53.81,2.53,2.53,0,0,1,1,2.06h-1.58a1.42,1.42,0,0,0-.54-1.11,2.08,2.08,0,0,0-1.38-.47,2.23,2.23,0,0,0-1.35.37,1.19,1.19,0,0,0-.48,1,1,1,0,0,0,.45.86,5.43,5.43,0,0,0,1.63.55,8.77,8.77,0,0,1,1.9.63,2.82,2.82,0,0,1,1.09.88,2.19,2.19,0,0,1,.35,1.25,2.35,2.35,0,0,1-1,2,4.15,4.15,0,0,1-2.55.74,4.66,4.66,0,0,1-2-.39,3.19,3.19,0,0,1-1.33-1.09,2.63,2.63,0,0,1-.48-1.52h1.57a1.63,1.63,0,0,0,.64,1.26,2.43,2.43,0,0,0,1.56.46,2.55,2.55,0,0,0,1.43-.36A1.11,1.11,0,0,0,375.24,297Z" transform="translate(-46.26 -196.8)"/><path class="cls-1" d="M387.06,294a7.77,7.77,0,0,1-3.06-1.48,2.86,2.86,0,0,1-.95-2.18,3,3,0,0,1,1.17-2.41,4.6,4.6,0,0,1,3-1,5.09,5.09,0,0,1,2.28.49,3.79,3.79,0,0,1,1.54,1.36,3.45,3.45,0,0,1,.55,1.9H390a2.28,2.28,0,0,0-.71-1.77,3.5,3.5,0,0,0-3.9-.11,1.76,1.76,0,0,0-.68,1.47,1.58,1.58,0,0,0,.65,1.28,6.17,6.17,0,0,0,2.18,1,10,10,0,0,1,2.41,1,3.63,3.63,0,0,1,1.29,1.22,3,3,0,0,1,.43,1.64,2.88,2.88,0,0,1-1.18,2.41,5,5,0,0,1-3.13.9,5.73,5.73,0,0,1-2.38-.49,3.91,3.91,0,0,1-1.7-1.33,3.27,3.27,0,0,1-.6-1.93h1.64a2.12,2.12,0,0,0,.82,1.77,3.53,3.53,0,0,0,2.22.65,3.22,3.22,0,0,0,2-.53,1.85,1.85,0,0,0,.05-2.84A7.43,7.43,0,0,0,387.06,294Z" transform="translate(-46.26 -196.8)"/><path class="cls-1" d="M395.06,291.4a3.36,3.36,0,0,1,2.72-1.28q2.91,0,2.94,3.29v6.07h-1.57V293.4a2.14,2.14,0,0,0-.46-1.47,1.8,1.8,0,0,0-1.39-.48,2.31,2.31,0,0,0-1.34.41,2.85,2.85,0,0,0-.9,1.07v6.55h-1.57V286.43h1.57Z" transform="translate(-46.26 -196.8)"/><path class="cls-1" d="M402.66,294.8a5.49,5.49,0,0,1,.53-2.43,3.93,3.93,0,0,1,3.64-2.25,3.88,3.88,0,0,1,3,1.3,5,5,0,0,1,1.16,3.46V295a5.4,5.4,0,0,1-.52,2.41,3.89,3.89,0,0,1-1.47,1.66,4.1,4.1,0,0,1-2.19.59,3.85,3.85,0,0,1-3-1.3,5,5,0,0,1-1.16-3.44Zm1.58.19a3.86,3.86,0,0,0,.71,2.45,2.4,2.4,0,0,0,3.8,0,4.28,4.28,0,0,0,.71-2.63,3.92,3.92,0,0,0-.72-2.45,2.28,2.28,0,0,0-1.91-.94,2.26,2.26,0,0,0-1.88.93A4.29,4.29,0,0,0,404.24,295Z" transform="translate(-46.26 -196.8)"/><path class="cls-1" d="M420.77,295a5.51,5.51,0,0,1-1,3.38,3.07,3.07,0,0,1-2.6,1.28,3.37,3.37,0,0,1-2.64-1.06V303H413V290.29h1.44l.07,1a3.25,3.25,0,0,1,2.67-1.19,3.14,3.14,0,0,1,2.62,1.25,5.57,5.57,0,0,1,1,3.47Zm-1.58-.18a4.08,4.08,0,0,0-.66-2.46,2.14,2.14,0,0,0-1.82-.9,2.33,2.33,0,0,0-2.14,1.27v4.39a2.32,2.32,0,0,0,2.16,1.26,2.14,2.14,0,0,0,1.8-.9A4.44,4.44,0,0,0,419.19,294.81Z" transform="translate(-46.26 -196.8)"/><path class="cls-1" d="M430.53,295a5.51,5.51,0,0,1-1,3.38,3.07,3.07,0,0,1-2.6,1.28,3.37,3.37,0,0,1-2.64-1.06V303h-1.57V290.29h1.44l.07,1a3.25,3.25,0,0,1,2.67-1.19,3.13,3.13,0,0,1,2.62,1.25,5.51,5.51,0,0,1,1,3.47Zm-1.57-.18a4,4,0,0,0-.67-2.46,2.12,2.12,0,0,0-1.81-.9,2.33,2.33,0,0,0-2.15,1.27v4.39a2.32,2.32,0,0,0,2.16,1.26,2.13,2.13,0,0,0,1.8-.9A4.43,4.43,0,0,0,429,294.81Z" transform="translate(-46.26 -196.8)"/><path class="cls-1" d="M432.53,287.85a1,1,0,0,1,.24-.65.88.88,0,0,1,.69-.26.91.91,0,0,1,.7.26.94.94,0,0,1,.23.65.83.83,0,0,1-.93.89.87.87,0,0,1-.69-.25A.91.91,0,0,1,432.53,287.85Zm1.7,11.63h-1.57v-9.19h1.57Z" transform="translate(-46.26 -196.8)"/><path class="cls-1" d="M438.24,290.29l.05,1.15a3.35,3.35,0,0,1,2.75-1.32q2.91,0,2.94,3.29v6.07h-1.57V293.4a2.14,2.14,0,0,0-.46-1.47,1.8,1.8,0,0,0-1.39-.48,2.29,2.29,0,0,0-1.34.41,2.85,2.85,0,0,0-.9,1.07v6.55h-1.57v-9.19Z" transform="translate(-46.26 -196.8)"/><path class="cls-1" d="M446,294.81a5.43,5.43,0,0,1,1-3.42,3.43,3.43,0,0,1,5.26-.08l.08-1h1.43v9a3.74,3.74,0,0,1-1.05,2.81,3.91,3.91,0,0,1-2.85,1,4.74,4.74,0,0,1-1.94-.42,3.31,3.31,0,0,1-1.46-1.17l.82-.94a3.08,3.08,0,0,0,2.47,1.25,2.41,2.41,0,0,0,1.79-.65,2.45,2.45,0,0,0,.64-1.82v-.79a3.21,3.21,0,0,1-2.57,1.09,3.11,3.11,0,0,1-2.61-1.3A5.62,5.62,0,0,1,446,294.81Zm1.58.18a4.16,4.16,0,0,0,.63,2.44,2.09,2.09,0,0,0,1.79.89,2.29,2.29,0,0,0,2.18-1.35v-4.2a2.32,2.32,0,0,0-2.16-1.32,2.09,2.09,0,0,0-1.8.9A4.47,4.47,0,0,0,447.56,295Z" transform="translate(-46.26 -196.8)"/></svg>